<svg xmlns="http://www.w3.org/2000/svg" width="188" height="35.059"><path fill="#5593c7" d="M34.792 0H188v35H34.792z"/><path fill="#a7bfc1" d="M0 .029h109v35H0z"/><path d="M122.708 13.588h2.5v3.348h2.988v-3.348h2.5V22h-2.5v-3.132H125.2V22h-2.5zm11.399 0h7.393v1.992h-2.448V22h-2.508v-6.42h-2.436zm10.813 0h2.68l2.256 4.668 2.244-4.668h2.676V22h-2.2v-4.992l-1.92 4.164h-1.62l-1.92-4.164V22h-2.2zm13.908 0h2.5v6.324h3.528V22h-6.024zm14.418 3.354a2.644 2.644 0 0 1 1.158.894 2.247 2.247 0 0 1 .408 1.332 2.77 2.77 0 0 1-.432 1.542 2.838 2.838 0 0 1-1.224 1.032 4.363 4.363 0 0 1-1.848.365 6.276 6.276 0 0 1-3.408-1.08l.912-1.728a4.649 4.649 0 0 0 1.092.7 2.745 2.745 0 0 0 1.128.252 1.236 1.236 0 0 0 .81-.234.817.817 0 0 0 .282-.666q0-.864-1.128-.864-1.332 0-2.34.024v-4.92h5.772v1.944h-3.492v1.092h.564a4.447 4.447 0 0 1 1.746.315zM17 20.143l2.168-6.674h1.629L17.725 22h-1.436l-3.059-8.531h1.623zm11.732-.129h-3.3L24.736 22h-1.541l3.223-8.531h1.33L30.976 22h-1.547zm-2.889-1.2h2.473l-1.236-3.535zM36.065 20.8h3.873V22h-5.355v-8.531h1.482zm9.214 1.2H43.8v-8.531h1.477zm4.463 0v-8.531h2.52a3.952 3.952 0 0 1 2.007.5 3.436 3.436 0 0 1 1.356 1.43 4.538 4.538 0 0 1 .48 2.121v.428a4.519 4.519 0 0 1-.483 2.133 3.4 3.4 0 0 1-1.377 1.419 4.135 4.135 0 0 1-2.045.5zm1.482-7.336V20.8h.967a2.229 2.229 0 0 0 1.79-.729 3.165 3.165 0 0 0 .636-2.09v-.475a3.251 3.251 0 0 0-.6-2.117 2.142 2.142 0 0 0-1.752-.731zm13.65 5.35h-3.3L60.878 22h-1.541l3.223-8.531h1.33L67.118 22h-1.547zm-2.889-1.2h2.473l-1.236-3.539zm14.201-4.15h-2.66V22h-1.471v-7.336h-2.637v-1.2h6.768zm8.745 3.527h-3.5V20.8h4.1V22h-5.586v-8.531h5.537v1.2h-4.055v2.351h3.5zM89.37 22v-8.531h2.52a3.952 3.952 0 0 1 2.007.5 3.436 3.436 0 0 1 1.356 1.43 4.538 4.538 0 0 1 .48 2.121v.428a4.519 4.519 0 0 1-.483 2.133 3.4 3.4 0 0 1-1.377 1.419 4.135 4.135 0 0 1-2.048.5zm1.482-7.336V20.8h.967a2.229 2.229 0 0 0 1.79-.729 3.165 3.165 0 0 0 .636-2.09v-.475a3.251 3.251 0 0 0-.6-2.117 2.142 2.142 0 0 0-1.752-.731z" fill="#fff"/></svg>